<svg width="20" height="20" viewBox="0 0 20 20" fill="none" xmlns="http://www.w3.org/2000/svg">
<path d="M17 7V18C17 18.2652 16.8946 18.5196 16.7071 18.7071C16.5196 18.8946 16.2652 19 16 19H4C3.73478 19 3.48043 18.8946 3.29289 18.7071C3.10536 18.5196 3 18.2652 3 18V7" stroke="currentColor" stroke-width="1.5" stroke-linecap="round" stroke-linejoin="round"/>
<path d="M13 6V8M7 6V8M17 17H18C18.2652 17 18.5196 16.8946 18.7071 16.7071C18.8946 16.5196 19 16.2652 19 16V13H17V17ZM3 13H1V16C1 16.2652 1.10536 16.5196 1.29289 16.7071C1.48043 16.8946 1.73478 17 2 17H3V13ZM18 5V2C18 1.73478 17.8946 1.48043 17.7071 1.29289C17.5196 1.10536 17.2652 1 17 1H3C2.73478 1 2.48043 1.10536 2.29289 1.29289C2.10536 1.48043 2 1.73478 2 2V5C2 5.53043 2.21071 6.03914 2.58579 6.41421C2.96086 6.78929 3.46957 7 4 7H16C16.5304 7 17.0391 6.78929 17.4142 6.41421C17.7893 6.03914 18 5.53043 18 5ZM13 19H7V14C7 13.7348 7.10536 13.4804 7.29289 13.2929C7.48043 13.1054 7.73478 13 8 13H12C12.2652 13 12.5196 13.1054 12.7071 13.2929C12.8946 13.4804 13 13.7348 13 14V19Z" stroke="currentColor" stroke-width="1.5" stroke-linecap="round" stroke-linejoin="round"/>
</svg>
