<svg width="15" height="18" viewBox="0 0 15 18" fill="none" xmlns="http://www.w3.org/2000/svg">
<path d="M7.5 2.77762C8.7398 2.77762 9.92879 3.2271 10.8054 4.02719C11.6821 4.82727 12.1746 5.91242 12.1746 7.04391C12.1746 8.79406 12.5599 10.1046 13.0595 11.0683C13.6979 12.2997 14.017 12.9154 13.9993 13.056C13.9786 13.2202 13.9522 13.2653 13.8208 13.3611C13.7082 13.4433 13.148 13.4433 12.0276 13.4433H2.97238C1.85198 13.4433 1.29178 13.4433 1.17917 13.3611C1.0478 13.2653 1.02141 13.2202 1.0007 13.056C0.982947 12.9154 1.30213 12.2997 1.94049 11.0683C2.44012 10.1046 2.82542 8.79406 2.82542 7.04391C2.82542 5.91242 3.31792 4.82727 4.19457 4.02719C5.07122 3.2271 6.2602 2.77762 7.5 2.77762ZM7.5 2.77762V1M5.20945 16.1098C5.82079 16.6638 6.62386 17 7.50346 17C8.38297 17 9.18605 16.6638 9.79746 16.1098" stroke="currentColor" stroke-linecap="round" stroke-linejoin="round"/>
</svg>
