<svg width="17" height="20" viewBox="0 0 17 20" fill="none" xmlns="http://www.w3.org/2000/svg">
<path d="M7.84563 18.7646C8.05319 18.8878 8.15697 18.9494 8.30341 18.9814C8.41713 19.0062 8.58287 19.0062 8.69659 18.9814C8.84303 18.9494 8.94681 18.8878 9.15437 18.7646C10.9806 17.68 16 14.2731 16 9.58888V4.43555C16 3.90311 16 3.63688 15.8993 3.43397C15.8101 3.25408 15.6707 3.1105 15.495 3.01752C15.2969 2.91264 15.0309 2.90944 14.4989 2.90304C11.713 2.8695 10.1065 2.63533 8.5 1C6.8935 2.63533 5.28699 2.8695 2.50113 2.90304C1.96912 2.90944 1.70312 2.91264 1.50498 3.01752C1.32933 3.1105 1.18993 3.25408 1.10068 3.43397C1 3.63688 1 3.90311 1 4.43555V9.58888C1 14.2731 6.01934 17.68 7.84563 18.7646Z" stroke="currentColor" stroke-width="2" stroke-linecap="round" stroke-linejoin="round"/>
</svg>
