<svg width="18" height="20" viewBox="0 0 18 20" fill="none" xmlns="http://www.w3.org/2000/svg">
<path d="M16.3637 11.0689V3.42329C16.3637 2.43633 15.5637 1.63638 14.5768 1.63638H12.2729V1.2461C12.2729 0.557758 11.7151 0 11.0268 0H5.33718C4.64887 0 4.09108 0.557758 4.09108 1.2461V1.63638H1.78691C0.799953 1.63638 0 2.43633 0 3.42329V17.8495C0 18.8364 0.799953 19.6364 1.78691 19.6364H13.0909C15.8018 19.6364 18 17.4381 18 14.7273C18 13.2737 17.3678 11.9678 16.3637 11.0689ZM5.72746 1.63638H10.6364V3.27276H5.72746V1.63638ZM1.78691 18C1.70369 18 1.63638 17.9327 1.63638 17.8495V3.42329C1.63638 3.34006 1.70369 3.27276 1.78691 3.27276H4.09093V3.66303C4.09093 4.35134 4.64868 4.90909 5.33703 4.90909H5.33718H11.0267H11.0268C11.7151 4.90909 12.2729 4.35134 12.2729 3.66299V3.27272H14.5768C14.66 3.27272 14.7273 3.34003 14.7273 3.42325V10.098C14.3114 9.95093 13.8698 9.85838 13.411 9.82881C13.408 9.82862 13.4051 9.82843 13.4022 9.82824C13.3728 9.8264 13.3434 9.82471 13.3139 9.82341C13.2975 9.82264 13.281 9.82214 13.2646 9.82153C13.245 9.82084 13.2254 9.82003 13.2057 9.81961C13.1675 9.81869 13.1293 9.81815 13.0909 9.81815C10.38 9.81815 8.18181 12.0164 8.18181 14.7272C8.18181 14.7681 8.18235 14.8089 8.18335 14.8495C8.18369 14.8631 8.18434 14.8766 8.18476 14.8901C8.18565 14.9172 8.18653 14.9442 8.18783 14.9712C8.1886 14.9872 8.18971 15.003 8.19063 15.019C8.19205 15.0434 8.19347 15.0678 8.19527 15.0921C8.1965 15.109 8.19804 15.1258 8.19945 15.1427C8.20141 15.1659 8.20337 15.1891 8.20563 15.2122C8.20732 15.2295 8.20923 15.2468 8.21111 15.264C8.21357 15.2866 8.21606 15.3091 8.21882 15.3316C8.22097 15.3491 8.22327 15.3665 8.22561 15.3839C8.22856 15.406 8.23163 15.428 8.23485 15.45C8.23746 15.4675 8.24015 15.485 8.24291 15.5025C8.24636 15.5244 8.25 15.5461 8.25372 15.5679C8.25671 15.5852 8.25974 15.6025 8.26293 15.6197C8.26695 15.6416 8.27113 15.6633 8.27543 15.6851C8.2788 15.702 8.28214 15.719 8.28571 15.736C8.29027 15.7579 8.2951 15.7797 8.29998 15.8015C8.3037 15.8181 8.30734 15.8347 8.31121 15.8513C8.31639 15.8734 8.32191 15.8955 8.3274 15.9176C8.33139 15.9335 8.33522 15.9495 8.33936 15.9654C8.34538 15.9885 8.35175 16.0116 8.35812 16.0346C8.36211 16.0492 8.36598 16.0638 8.37012 16.0782C8.37756 16.1043 8.38542 16.1302 8.39329 16.1561C8.39674 16.1675 8.39996 16.1788 8.40349 16.1901C8.41507 16.2272 8.42704 16.2641 8.43942 16.3008C8.44115 16.3059 8.44307 16.311 8.44479 16.3161C8.45557 16.3477 8.46658 16.3791 8.47797 16.4103C8.48261 16.423 8.48752 16.4356 8.49227 16.4483C8.50109 16.4718 8.50988 16.4953 8.51904 16.5186C8.52472 16.5331 8.53063 16.5474 8.53642 16.5618C8.54505 16.5831 8.55364 16.6045 8.56257 16.6258C8.5689 16.6408 8.57546 16.6558 8.5819 16.6708C8.59072 16.6912 8.59955 16.7116 8.6086 16.7318C8.61542 16.747 8.6224 16.7622 8.62938 16.7773C8.63847 16.7971 8.64764 16.8168 8.65696 16.8364C8.66424 16.8517 8.67169 16.867 8.67913 16.8822C8.68856 16.9015 8.69811 16.9208 8.70781 16.9399C8.71548 16.9551 8.72323 16.9702 8.73106 16.9852C8.74095 17.0042 8.75096 17.0232 8.76109 17.0421C8.76906 17.057 8.77712 17.0719 8.78525 17.0867C8.79564 17.1056 8.80619 17.1243 8.81677 17.1431C8.82502 17.1576 8.83326 17.1722 8.84166 17.1867C8.85259 17.2055 8.86372 17.2242 8.87488 17.2429C8.88331 17.257 8.89171 17.2711 8.90027 17.2851C8.91196 17.3043 8.92393 17.3232 8.93586 17.3421C8.94422 17.3554 8.9525 17.3687 8.96098 17.3819C8.97394 17.402 8.98717 17.4219 9.0004 17.4418C9.00823 17.4536 9.01594 17.4655 9.02388 17.4772C9.0396 17.5004 9.05563 17.5233 9.07174 17.5462C9.07749 17.5544 9.08313 17.5627 9.08892 17.5709C9.11097 17.6019 9.13337 17.6326 9.15615 17.6631C9.16098 17.6696 9.16601 17.6759 9.17088 17.6824C9.18887 17.7062 9.20697 17.73 9.22538 17.7535C9.23389 17.7644 9.24267 17.775 9.25127 17.7858C9.2663 17.8047 9.28133 17.8236 9.29667 17.8422C9.30649 17.8541 9.31646 17.8659 9.3264 17.8777C9.3409 17.895 9.35539 17.9123 9.37012 17.9294C9.38063 17.9416 9.39133 17.9537 9.40195 17.9658C9.412 17.9772 9.42186 17.9888 9.43198 18.0001H1.78691V18ZM13.0909 18C11.2838 18 9.81823 16.5344 9.81823 14.7273C9.81823 12.9202 11.2838 11.4546 13.0909 11.4546C13.1407 11.4546 13.1902 11.4561 13.2394 11.4583C13.2647 11.4595 13.2898 11.4613 13.315 11.463C13.3348 11.4644 13.3546 11.4658 13.3743 11.4676C13.9801 11.522 14.5539 11.7498 15.0523 12.1262L15.3008 12.3139C15.9539 12.9123 16.3637 13.772 16.3637 14.7273C16.3637 16.5344 14.8981 18 13.0909 18Z" fill="currentColor"/>
<path d="M14.1488 13.3306L13.0909 14.3884L12.8513 14.1488C12.5318 13.8293 12.0137 13.8293 11.6942 14.1488C11.3747 14.4683 11.3747 14.9864 11.6942 15.3059L12.5124 16.124C12.8319 16.4436 13.35 16.4436 13.6695 16.124L15.3059 14.4877C15.6254 14.1682 15.6254 13.6501 15.3059 13.3306C14.9863 13.0111 14.4683 13.0111 14.1488 13.3306Z" fill="currentColor"/>
<path d="M4.09112 8.18187H5.7275C6.17936 8.18187 6.54567 7.81557 6.54567 7.3637C6.54567 6.91183 6.17936 6.54553 5.7275 6.54553H4.09112C3.63925 6.54553 3.27295 6.91183 3.27295 7.3637C3.27295 7.81557 3.63925 8.18187 4.09112 8.18187Z" fill="currentColor"/>
<path d="M8.99981 8.18187H12.2725C12.7244 8.18187 13.0907 7.81557 13.0907 7.3637C13.0907 6.91183 12.7244 6.54553 12.2725 6.54553H8.99981C8.54794 6.54553 8.18164 6.91183 8.18164 7.3637C8.18164 7.81557 8.54794 8.18187 8.99981 8.18187Z" fill="currentColor"/>
<path d="M6.54548 13.0909H3.27276C2.82089 13.0909 2.45459 13.4572 2.45459 13.9091C2.45459 14.361 2.82089 14.7273 3.27276 14.7273H6.54548C6.99734 14.7273 7.36365 14.361 7.36365 13.9091C7.36365 13.4573 6.99734 13.0909 6.54548 13.0909Z" fill="currentColor"/>
<path d="M4.09112 11.4546H8.18204C8.63391 11.4546 9.00021 11.0883 9.00021 10.6364C9.00021 10.1845 8.63391 9.81824 8.18204 9.81824H4.09112C3.63925 9.81824 3.27295 10.1845 3.27295 10.6364C3.27295 11.0882 3.63925 11.4546 4.09112 11.4546Z" fill="currentColor"/>
</svg>
