<svg width="17" height="18" viewBox="0 0 17 18" fill="none" xmlns="http://www.w3.org/2000/svg">
<path fill-rule="evenodd" clip-rule="evenodd" d="M1.8594 8.49175C1.72552 8.80282 1.7 8.96179 1.7 9V15.5469C1.7 15.9978 2.07954 16.3636 2.55 16.3636H5.1V11.4545C5.1 10.5508 5.86112 9.81818 6.8 9.81818H10.2C11.1389 9.81818 11.9 10.5508 11.9 11.4545V16.3636H14.45C14.9205 16.3636 15.3 15.9978 15.3 15.5469V9C15.3 8.96179 15.2745 8.80282 15.1406 8.49175C15.0163 8.20276 14.8277 7.84849 14.5815 7.4475C14.0899 6.64675 13.4003 5.7109 12.6283 4.81924C11.8545 3.92554 11.0193 3.10066 10.2427 2.50735C9.85448 2.21076 9.49756 1.98497 9.18468 1.83633C8.86465 1.68433 8.63949 1.63636 8.5 1.63636C8.36051 1.63636 8.13535 1.68433 7.81532 1.83633C7.50244 1.98497 7.14553 2.21076 6.75731 2.50735C5.98068 3.10066 5.14546 3.92554 4.37174 4.81924C3.59979 5.7109 2.91007 6.64675 2.41851 7.4475C2.17233 7.84849 1.98377 8.20276 1.8594 8.49175ZM7.06299 0.368926C7.51 0.156584 8.00198 0 8.5 0C8.99802 0 9.49 0.156584 9.93701 0.368926C10.3911 0.584624 10.851 0.88299 11.2995 1.2256C12.1963 1.91071 13.1142 2.82446 13.9342 3.77167C14.7561 4.72092 15.5007 5.72825 16.0451 6.61502C16.3169 7.05775 16.5467 7.48325 16.7112 7.86551C16.8661 8.22559 17 8.62912 17 9V15.5469C17 16.9036 15.8573 18 14.45 18H11.9C10.9611 18 10.2 17.2674 10.2 16.3636V11.4545H6.8V16.3636C6.8 17.2674 6.03888 18 5.1 18H2.55C1.14269 18 0 16.9036 0 15.5469V9C0 8.62912 0.133858 8.22559 0.288847 7.86551C0.453339 7.48325 0.683137 7.05775 0.954933 6.61502C1.49931 5.72825 2.24396 4.72092 3.06576 3.77167C3.88579 2.82446 4.8037 1.91071 5.7005 1.2256C6.14898 0.88299 6.60893 0.584624 7.06299 0.368926Z" fill="currentColor"/>
</svg>
