<svg width="39" height="39" viewBox="0 0 39 39" fill="none" xmlns="http://www.w3.org/2000/svg">
<path d="M38.9997 5.31818C38.9997 2.38104 36.6187 0 33.6815 0H26.5906C25.6115 0 24.8179 0.793685 24.8179 1.77273C24.8179 2.75177 25.6115 3.54545 26.5906 3.54545H33.6815C34.6606 3.54545 35.4542 4.33914 35.4542 5.31818V12.4091C35.4542 13.3881 36.2479 14.1818 37.227 14.1818C38.206 14.1818 38.9997 13.3881 38.9997 12.4091V5.31818Z" fill="currentColor" fill-opacity="0.14"/>
<path d="M38.9997 26.5908C38.9997 25.6118 38.206 24.8181 37.227 24.8181C36.2479 24.8181 35.4542 25.6118 35.4542 26.5908V33.6818C35.4542 34.6608 34.6606 35.4545 33.6815 35.4545H26.5906C25.6115 35.4545 24.8179 36.2481 24.8179 37.2272C24.8179 38.2063 25.6115 38.9999 26.5906 38.9999H33.6815C36.6187 38.9999 38.9997 36.619 38.9997 33.6818V26.5908Z" fill="currentColor" fill-opacity="0.14"/>
<path d="M12.4091 35.4545H5.31818C4.33914 35.4545 3.54545 34.6608 3.54545 33.6818V26.5908C3.54545 25.6118 2.75177 24.8181 1.77273 24.8181C0.793685 24.8181 0 25.6118 0 26.5908V33.6818C0 36.619 2.38104 38.9999 5.31818 38.9999H12.4091C13.3881 38.9999 14.1818 38.2063 14.1818 37.2272C14.1818 36.2481 13.3881 35.4545 12.4091 35.4545Z" fill="currentColor" fill-opacity="0.14"/>
<path d="M0 12.4091C0 13.3881 0.793685 14.1818 1.77273 14.1818C2.75177 14.1818 3.54545 13.3881 3.54545 12.4091V5.31818C3.54545 4.33914 4.33914 3.54545 5.31818 3.54545H12.4091C13.3881 3.54545 14.1818 2.75177 14.1818 1.77273C14.1818 0.793685 13.3881 0 12.4091 0H5.31818C2.38104 0 0 2.38104 0 5.31818V12.4091Z" fill="currentColor" fill-opacity="0.14"/>
<path d="M17.7274 14.1817C17.7274 13.2026 18.521 12.4089 19.5001 12.4089C20.4792 12.4089 21.2728 13.2026 21.2728 14.1817V17.7271H24.8183C25.7973 17.7271 26.591 18.5208 26.591 19.4998C26.591 20.4789 25.7973 21.2726 24.8183 21.2726H21.2728V24.818C21.2728 25.7971 20.4792 26.5908 19.5001 26.5908C18.521 26.5908 17.7274 25.7971 17.7274 24.818V21.2726H14.1819C13.2028 21.2726 12.4092 20.4789 12.4092 19.4998C12.4092 18.5208 13.2028 17.7271 14.1819 17.7271H17.7274V14.1817Z" fill="currentColor" fill-opacity="0.14"/>
</svg>
