<svg width="108" height="104" viewBox="0 0 108 104" fill="none" xmlns="http://www.w3.org/2000/svg">
<path d="M54 22V54" stroke="currentColor" stroke-opacity="0.21" stroke-width="5" stroke-miterlimit="10"/>
<path d="M86.4457 3H21.5543C16.6334 3 11.914 4.94805 8.43442 8.4156C4.95482 11.8832 3 16.5862 3 21.49V67.6667C3 72.5705 4.95482 77.2735 8.43442 80.7411C11.914 84.2086 16.6334 86.1567 21.5543 86.1567H40.1086L54 100L67.8914 86.1567H86.4457C91.3666 86.1567 96.086 84.2086 99.5656 80.7411C103.045 77.2735 105 72.5705 105 67.6667V21.49C105 16.5862 103.045 11.8832 99.5656 8.4156C96.086 4.94805 91.3666 3 86.4457 3Z" stroke="currentColor" stroke-opacity="0.21" stroke-width="5" stroke-miterlimit="10"/>
<path d="M49 63H59" stroke="currentColor" stroke-opacity="0.21" stroke-width="5" stroke-miterlimit="10"/>
</svg>
