<svg width="19" height="18" viewBox="0 0 19 18" fill="none" xmlns="http://www.w3.org/2000/svg">
<path fill-rule="evenodd" clip-rule="evenodd" d="M9.975 0H8.55C7.7634 0 7.125 0.504 7.125 1.125V16.875C7.125 17.496 7.7634 18 8.55 18H9.975C10.7616 18 11.4 17.496 11.4 16.875V1.125C11.4 0.504 10.7616 0 9.975 0ZM17.1 9H15.675C14.8884 9 14.25 9.504 14.25 10.125V16.875C14.25 17.496 14.8884 18 15.675 18H17.1C17.8866 18 18.525 17.496 18.525 16.875V10.125C18.525 9.504 17.8866 9 17.1 9ZM2.85 5.0625H1.425C0.6384 5.0625 0 5.5665 0 6.1875V16.875C0 17.496 0.6384 18 1.425 18H2.85C3.6366 18 4.275 17.496 4.275 16.875V6.1875C4.275 5.5665 3.6366 5.0625 2.85 5.0625Z" fill="currentColor"/>
</svg>
