<svg width="18" height="21" viewBox="0 0 18 21" fill="none" xmlns="http://www.w3.org/2000/svg">
<path d="M17.9308 5.95522C17.9308 5.88557 18 5.81592 18 5.74627C18 5.74627 18 5.74627 18 5.67662C18 5.67662 18 5.67662 18 5.60696C18 5.53731 18 5.46766 18 5.39801C18 5.39801 18 5.39801 18 5.32836C18 5.25871 17.9308 5.18905 17.9308 5.1194C17.8615 5.04975 17.8615 5.04975 17.7923 4.9801L10.1769 0.104478C9.96923 -0.0348259 9.62308 -0.0348259 9.41539 0.104478L0.415385 6.37313L0.346154 6.44279C0.346154 6.44279 0.346154 6.44279 0.276923 6.44279C0.207692 6.51244 0.207692 6.58209 0.138462 6.65174C0.138462 6.65174 0.138462 6.65174 0.138462 6.72139C3.09486e-08 6.93035 0 7 0 7.06965V11.2488V15.4279C0 15.6368 0.138462 15.9154 0.346154 15.9851L7.96154 20.8607C8.1 20.9303 8.23846 21 8.30769 21C8.44615 21 8.58462 20.9303 8.72308 20.8607L17.7231 14.592C17.8615 14.4527 18 14.3134 18 14.1045C18 13.8955 17.9308 13.6866 17.7923 13.5473C17.1692 12.9204 17.0308 12.0149 17.4462 11.1791L17.9308 10.1343C17.9308 10.0647 18 9.99502 18 9.92537V9.85572C18 9.78607 18 9.64677 17.9308 9.57711V9.50746C17.9308 9.43781 17.8615 9.36816 17.7923 9.29851C17.1692 8.67164 17.0308 7.76617 17.4462 6.93035L17.9308 5.95522ZM16.3385 9.71642L8.30769 15.2886L1.38462 10.9005V8.39303L7.96154 12.5721C8.1 12.6418 8.23846 12.7114 8.30769 12.7114C8.44615 12.7114 8.58462 12.6418 8.72308 12.5721L15.8538 7.62687C15.7846 8.32338 15.9231 9.0199 16.3385 9.71642ZM8.30769 19.4677L1.38462 15.0796V12.5721L7.96154 16.7512C8.1 16.8209 8.23846 16.8905 8.30769 16.8905C8.44615 16.8905 8.58462 16.8209 8.72308 16.7512L15.8538 11.806C15.7846 12.5721 15.9231 13.3383 16.3385 13.9652L8.30769 19.4677Z" fill="currentColor"/>
</svg>
