<svg width="16" height="17" viewBox="0 0 16 17" fill="none" xmlns="http://www.w3.org/2000/svg">
<path d="M13.25 3.5L12.5492 13.5107C12.4879 14.3875 12.4572 14.8259 12.2584 15.1583C12.0833 15.451 11.8192 15.6863 11.501 15.8332C11.1395 16 10.6781 16 9.75542 16H6.24455C5.32186 16 4.86052 16 4.49903 15.8332C4.18077 15.6863 3.91672 15.451 3.74165 15.1583C3.54281 14.8259 3.51212 14.3875 3.45075 13.5107L2.75 3.5M1 3.5H15M11.5 3.5L11.2632 2.82339C11.0337 2.16771 10.9189 1.83987 10.7061 1.59748C10.5182 1.38344 10.2768 1.21777 10.0042 1.11565C9.6954 1 9.33262 1 8.6069 1H7.3931C6.66738 1 6.3046 1 5.99582 1.11565C5.72318 1.21777 5.48182 1.38344 5.29388 1.59748C5.08104 1.83987 4.96631 2.16771 4.73681 2.82339L4.5 3.5" stroke="currentColor" stroke-linecap="round" stroke-linejoin="round"/>
</svg>
